<mxfile host="app.diagrams.net" modified="2023-11-25T11:01:37.988Z" agent="Mozilla/5.0 (Windows NT 10.0; Win64; x64) AppleWebKit/537.36 (KHTML, like Gecko) Chrome/119.0.0.0 Safari/537.36" etag="czcRgb1zIsMfaRS0FjKq" version="22.1.4" type="github">
  <diagram name="Página-1" id="yceptEIofuauP-qJLoJ5">
    <mxGraphModel dx="1434" dy="1959" grid="1" gridSize="10" guides="1" tooltips="1" connect="1" arrows="1" fold="1" page="1" pageScale="1" pageWidth="827" pageHeight="1169" math="0" shadow="0">
      <root>
        <mxCell id="0" />
        <mxCell id="1" parent="0" />
        <mxCell id="JtqYQyz3M2eFER5Y3MMs-2" value="" style="rounded=0;whiteSpace=wrap;html=1;" vertex="1" parent="1">
          <mxGeometry x="130" y="-1120" width="580" height="780" as="geometry" />
        </mxCell>
        <mxCell id="JtqYQyz3M2eFER5Y3MMs-3" value="Cliente" style="shape=umlActor;verticalLabelPosition=bottom;verticalAlign=top;html=1;outlineConnect=0;shadow=0;" vertex="1" parent="1">
          <mxGeometry x="20" y="-1010" width="50" height="110" as="geometry" />
        </mxCell>
        <mxCell id="JtqYQyz3M2eFER5Y3MMs-4" value="Médico" style="shape=umlActor;verticalLabelPosition=bottom;verticalAlign=top;html=1;outlineConnect=0;" vertex="1" parent="1">
          <mxGeometry x="20" y="-510" width="50" height="110" as="geometry" />
        </mxCell>
        <mxCell id="JtqYQyz3M2eFER5Y3MMs-5" value="Banco de dados" style="shape=umlActor;verticalLabelPosition=bottom;verticalAlign=top;html=1;outlineConnect=0;" vertex="1" parent="1">
          <mxGeometry x="740" y="-790" width="70" height="160" as="geometry" />
        </mxCell>
        <mxCell id="JtqYQyz3M2eFER5Y3MMs-8" value="Administrador" style="shape=umlActor;verticalLabelPosition=bottom;verticalAlign=top;html=1;outlineConnect=0;" vertex="1" parent="1">
          <mxGeometry x="20" y="-760" width="50" height="110" as="geometry" />
        </mxCell>
        <mxCell id="JtqYQyz3M2eFER5Y3MMs-14" value="Fazer login" style="ellipse;whiteSpace=wrap;html=1;" vertex="1" parent="1">
          <mxGeometry x="220" y="-1070" width="120" height="80" as="geometry" />
        </mxCell>
        <mxCell id="JtqYQyz3M2eFER5Y3MMs-15" value="Fazer registro" style="ellipse;whiteSpace=wrap;html=1;" vertex="1" parent="1">
          <mxGeometry x="220" y="-960" width="120" height="80" as="geometry" />
        </mxCell>
        <mxCell id="JtqYQyz3M2eFER5Y3MMs-16" value="Marcar consultas" style="ellipse;whiteSpace=wrap;html=1;" vertex="1" parent="1">
          <mxGeometry x="220" y="-840" width="120" height="80" as="geometry" />
        </mxCell>
        <mxCell id="JtqYQyz3M2eFER5Y3MMs-17" value="Responder por datas e horários" style="ellipse;whiteSpace=wrap;html=1;fillColor=#CCCCCC;" vertex="1" parent="1">
          <mxGeometry x="220" y="-675" width="120" height="80" as="geometry" />
        </mxCell>
        <mxCell id="JtqYQyz3M2eFER5Y3MMs-18" value="Verificar consultas marcadas" style="ellipse;whiteSpace=wrap;html=1;" vertex="1" parent="1">
          <mxGeometry x="220" y="-570" width="120" height="80" as="geometry" />
        </mxCell>
        <mxCell id="JtqYQyz3M2eFER5Y3MMs-19" value="Editar usuários cadastrados" style="ellipse;whiteSpace=wrap;html=1;" vertex="1" parent="1">
          <mxGeometry x="220" y="-460" width="120" height="80" as="geometry" />
        </mxCell>
        <mxCell id="JtqYQyz3M2eFER5Y3MMs-21" value="Verificar senha" style="ellipse;whiteSpace=wrap;html=1;fillColor=#CCCCCC;" vertex="1" parent="1">
          <mxGeometry x="550" y="-1070" width="120" height="80" as="geometry" />
        </mxCell>
        <mxCell id="JtqYQyz3M2eFER5Y3MMs-22" value="Responder erro de login" style="ellipse;whiteSpace=wrap;html=1;fillColor=#CCCCCC;" vertex="1" parent="1">
          <mxGeometry x="550" y="-960" width="120" height="80" as="geometry" />
        </mxCell>
        <mxCell id="JtqYQyz3M2eFER5Y3MMs-23" value="Verificar horário e datas disponíveis" style="ellipse;whiteSpace=wrap;html=1;fillColor=#CCCCCC;" vertex="1" parent="1">
          <mxGeometry x="510" y="-770" width="120" height="80" as="geometry" />
        </mxCell>
        <mxCell id="JtqYQyz3M2eFER5Y3MMs-24" value="&amp;lt;&amp;lt;incluir&amp;gt;&amp;gt;" style="endArrow=open;endSize=12;dashed=1;html=1;rounded=0;exitX=1;exitY=0.5;exitDx=0;exitDy=0;entryX=0;entryY=0.5;entryDx=0;entryDy=0;" edge="1" parent="1" source="JtqYQyz3M2eFER5Y3MMs-14" target="JtqYQyz3M2eFER5Y3MMs-21">
          <mxGeometry width="160" relative="1" as="geometry">
            <mxPoint x="290" y="-950" as="sourcePoint" />
            <mxPoint x="450" y="-950" as="targetPoint" />
          </mxGeometry>
        </mxCell>
        <mxCell id="JtqYQyz3M2eFER5Y3MMs-27" value="&amp;lt;&amp;lt;estender&amp;gt;&amp;gt;" style="endArrow=open;endSize=12;dashed=1;html=1;rounded=0;exitX=0;exitY=0.5;exitDx=0;exitDy=0;" edge="1" parent="1" source="JtqYQyz3M2eFER5Y3MMs-22">
          <mxGeometry width="160" relative="1" as="geometry">
            <mxPoint x="350" y="-1020" as="sourcePoint" />
            <mxPoint x="340" y="-1030" as="targetPoint" />
          </mxGeometry>
        </mxCell>
        <mxCell id="JtqYQyz3M2eFER5Y3MMs-29" value="" style="endArrow=none;html=1;rounded=0;entryX=1;entryY=0.5;entryDx=0;entryDy=0;exitX=0.5;exitY=0;exitDx=0;exitDy=0;exitPerimeter=0;" edge="1" parent="1" source="JtqYQyz3M2eFER5Y3MMs-5" target="JtqYQyz3M2eFER5Y3MMs-21">
          <mxGeometry width="50" height="50" relative="1" as="geometry">
            <mxPoint x="450" y="-920" as="sourcePoint" />
            <mxPoint x="500" y="-970" as="targetPoint" />
          </mxGeometry>
        </mxCell>
        <mxCell id="JtqYQyz3M2eFER5Y3MMs-30" value="" style="endArrow=none;html=1;rounded=0;entryX=1;entryY=0.5;entryDx=0;entryDy=0;exitX=0.25;exitY=0.1;exitDx=0;exitDy=0;exitPerimeter=0;" edge="1" parent="1" source="JtqYQyz3M2eFER5Y3MMs-5" target="JtqYQyz3M2eFER5Y3MMs-15">
          <mxGeometry width="50" height="50" relative="1" as="geometry">
            <mxPoint x="785" y="-780" as="sourcePoint" />
            <mxPoint x="680" y="-1020" as="targetPoint" />
          </mxGeometry>
        </mxCell>
        <mxCell id="JtqYQyz3M2eFER5Y3MMs-31" value="" style="endArrow=none;html=1;rounded=0;entryX=1;entryY=0.5;entryDx=0;entryDy=0;exitX=0.25;exitY=0.1;exitDx=0;exitDy=0;exitPerimeter=0;" edge="1" parent="1" source="JtqYQyz3M2eFER5Y3MMs-5" target="JtqYQyz3M2eFER5Y3MMs-16">
          <mxGeometry width="50" height="50" relative="1" as="geometry">
            <mxPoint x="768" y="-764" as="sourcePoint" />
            <mxPoint x="350" y="-910" as="targetPoint" />
          </mxGeometry>
        </mxCell>
        <mxCell id="JtqYQyz3M2eFER5Y3MMs-32" value="&amp;lt;&amp;lt;incluir&amp;gt;&amp;gt;" style="endArrow=open;endSize=12;dashed=1;html=1;rounded=0;exitX=1;exitY=0.5;exitDx=0;exitDy=0;entryX=0;entryY=0.5;entryDx=0;entryDy=0;" edge="1" parent="1" source="JtqYQyz3M2eFER5Y3MMs-16" target="JtqYQyz3M2eFER5Y3MMs-23">
          <mxGeometry width="160" relative="1" as="geometry">
            <mxPoint x="350" y="-1020" as="sourcePoint" />
            <mxPoint x="560" y="-1020" as="targetPoint" />
          </mxGeometry>
        </mxCell>
        <mxCell id="JtqYQyz3M2eFER5Y3MMs-33" value="&amp;lt;&amp;lt;estender&amp;gt;&amp;gt;" style="endArrow=open;endSize=12;dashed=1;html=1;rounded=0;exitX=0.5;exitY=0;exitDx=0;exitDy=0;entryX=0.5;entryY=1;entryDx=0;entryDy=0;" edge="1" parent="1" source="JtqYQyz3M2eFER5Y3MMs-17" target="JtqYQyz3M2eFER5Y3MMs-16">
          <mxGeometry width="160" relative="1" as="geometry">
            <mxPoint x="560" y="-910" as="sourcePoint" />
            <mxPoint x="350" y="-1020" as="targetPoint" />
          </mxGeometry>
        </mxCell>
        <mxCell id="JtqYQyz3M2eFER5Y3MMs-34" value="" style="endArrow=none;html=1;rounded=0;entryX=0.75;entryY=0.1;entryDx=0;entryDy=0;exitX=0;exitY=0.5;exitDx=0;exitDy=0;entryPerimeter=0;strokeColor=#FF3333;" edge="1" parent="1" source="JtqYQyz3M2eFER5Y3MMs-14" target="JtqYQyz3M2eFER5Y3MMs-3">
          <mxGeometry width="50" height="50" relative="1" as="geometry">
            <mxPoint x="768" y="-764" as="sourcePoint" />
            <mxPoint x="350" y="-910" as="targetPoint" />
          </mxGeometry>
        </mxCell>
        <mxCell id="JtqYQyz3M2eFER5Y3MMs-35" value="" style="endArrow=none;html=1;rounded=0;entryX=0.75;entryY=0.1;entryDx=0;entryDy=0;exitX=0;exitY=0.5;exitDx=0;exitDy=0;entryPerimeter=0;strokeColor=#FF3333;" edge="1" parent="1" source="JtqYQyz3M2eFER5Y3MMs-15" target="JtqYQyz3M2eFER5Y3MMs-3">
          <mxGeometry width="50" height="50" relative="1" as="geometry">
            <mxPoint x="230" y="-1020" as="sourcePoint" />
            <mxPoint x="78" y="-969" as="targetPoint" />
          </mxGeometry>
        </mxCell>
        <mxCell id="JtqYQyz3M2eFER5Y3MMs-36" value="" style="endArrow=none;html=1;rounded=0;exitX=0;exitY=0;exitDx=0;exitDy=0;entryX=0.5;entryY=0.5;entryDx=0;entryDy=0;entryPerimeter=0;strokeColor=#FF3333;" edge="1" parent="1" source="JtqYQyz3M2eFER5Y3MMs-16" target="JtqYQyz3M2eFER5Y3MMs-3">
          <mxGeometry width="50" height="50" relative="1" as="geometry">
            <mxPoint x="230" y="-910" as="sourcePoint" />
            <mxPoint x="78" y="-969" as="targetPoint" />
          </mxGeometry>
        </mxCell>
        <mxCell id="JtqYQyz3M2eFER5Y3MMs-37" value="" style="endArrow=none;html=1;rounded=0;entryX=0.5;entryY=0.5;entryDx=0;entryDy=0;exitX=0.225;exitY=0.1;exitDx=0;exitDy=0;entryPerimeter=0;exitPerimeter=0;strokeColor=#FF3333;" edge="1" parent="1" source="JtqYQyz3M2eFER5Y3MMs-18" target="JtqYQyz3M2eFER5Y3MMs-3">
          <mxGeometry width="50" height="50" relative="1" as="geometry">
            <mxPoint x="248" y="-818" as="sourcePoint" />
            <mxPoint x="65" y="-925" as="targetPoint" />
          </mxGeometry>
        </mxCell>
        <mxCell id="JtqYQyz3M2eFER5Y3MMs-38" value="" style="endArrow=none;html=1;rounded=0;entryX=0.5;entryY=0;entryDx=0;entryDy=0;exitX=0;exitY=0.5;exitDx=0;exitDy=0;entryPerimeter=0;strokeColor=#3333FF;" edge="1" parent="1" source="JtqYQyz3M2eFER5Y3MMs-14" target="JtqYQyz3M2eFER5Y3MMs-8">
          <mxGeometry width="50" height="50" relative="1" as="geometry">
            <mxPoint x="242" y="-543" as="sourcePoint" />
            <mxPoint x="65" y="-925" as="targetPoint" />
          </mxGeometry>
        </mxCell>
        <mxCell id="JtqYQyz3M2eFER5Y3MMs-39" value="" style="endArrow=none;html=1;rounded=0;exitX=0;exitY=0;exitDx=0;exitDy=0;entryX=0.5;entryY=0.5;entryDx=0;entryDy=0;entryPerimeter=0;strokeColor=#3333FF;" edge="1" parent="1" source="JtqYQyz3M2eFER5Y3MMs-18" target="JtqYQyz3M2eFER5Y3MMs-8">
          <mxGeometry width="50" height="50" relative="1" as="geometry">
            <mxPoint x="230" y="-560" as="sourcePoint" />
            <mxPoint x="70" y="-710" as="targetPoint" />
          </mxGeometry>
        </mxCell>
        <mxCell id="JtqYQyz3M2eFER5Y3MMs-40" value="" style="endArrow=none;html=1;rounded=0;entryX=0.5;entryY=0.5;entryDx=0;entryDy=0;entryPerimeter=0;exitX=0;exitY=0;exitDx=0;exitDy=0;strokeColor=#3333FF;" edge="1" parent="1" source="JtqYQyz3M2eFER5Y3MMs-19" target="JtqYQyz3M2eFER5Y3MMs-8">
          <mxGeometry width="50" height="50" relative="1" as="geometry">
            <mxPoint x="240" y="-550" as="sourcePoint" />
            <mxPoint x="75" y="-780" as="targetPoint" />
          </mxGeometry>
        </mxCell>
        <mxCell id="JtqYQyz3M2eFER5Y3MMs-41" value="" style="endArrow=none;html=1;rounded=0;entryX=1;entryY=0.3333333333333333;entryDx=0;entryDy=0;exitX=0;exitY=0.5;exitDx=0;exitDy=0;entryPerimeter=0;strokeColor=#3333FF;" edge="1" parent="1" source="JtqYQyz3M2eFER5Y3MMs-16" target="JtqYQyz3M2eFER5Y3MMs-8">
          <mxGeometry width="50" height="50" relative="1" as="geometry">
            <mxPoint x="230" y="-910" as="sourcePoint" />
            <mxPoint x="78" y="-969" as="targetPoint" />
          </mxGeometry>
        </mxCell>
        <mxCell id="JtqYQyz3M2eFER5Y3MMs-42" value="" style="endArrow=none;html=1;rounded=0;entryX=1;entryY=0.3333333333333333;entryDx=0;entryDy=0;exitX=0.092;exitY=0.75;exitDx=0;exitDy=0;entryPerimeter=0;exitPerimeter=0;strokeColor=#3333FF;" edge="1" parent="1" source="JtqYQyz3M2eFER5Y3MMs-15" target="JtqYQyz3M2eFER5Y3MMs-8">
          <mxGeometry width="50" height="50" relative="1" as="geometry">
            <mxPoint x="230" y="-790" as="sourcePoint" />
            <mxPoint x="90" y="-753" as="targetPoint" />
          </mxGeometry>
        </mxCell>
        <mxCell id="JtqYQyz3M2eFER5Y3MMs-43" value="" style="endArrow=none;html=1;rounded=0;entryX=0.5;entryY=0.5;entryDx=0;entryDy=0;entryPerimeter=0;exitX=0.017;exitY=0.425;exitDx=0;exitDy=0;exitPerimeter=0;" edge="1" parent="1" source="JtqYQyz3M2eFER5Y3MMs-19" target="JtqYQyz3M2eFER5Y3MMs-4">
          <mxGeometry width="50" height="50" relative="1" as="geometry">
            <mxPoint x="248" y="-438" as="sourcePoint" />
            <mxPoint x="65" y="-735" as="targetPoint" />
          </mxGeometry>
        </mxCell>
        <mxCell id="JtqYQyz3M2eFER5Y3MMs-45" value="" style="endArrow=none;html=1;rounded=0;exitX=0;exitY=0.5;exitDx=0;exitDy=0;entryX=0.5;entryY=0.5;entryDx=0;entryDy=0;entryPerimeter=0;" edge="1" parent="1" source="JtqYQyz3M2eFER5Y3MMs-18" target="JtqYQyz3M2eFER5Y3MMs-4">
          <mxGeometry width="50" height="50" relative="1" as="geometry">
            <mxPoint x="232" y="-416" as="sourcePoint" />
            <mxPoint x="55" y="-445" as="targetPoint" />
          </mxGeometry>
        </mxCell>
        <mxCell id="JtqYQyz3M2eFER5Y3MMs-46" value="" style="endArrow=none;html=1;rounded=0;entryX=1;entryY=0.3333333333333333;entryDx=0;entryDy=0;entryPerimeter=0;exitX=0;exitY=1;exitDx=0;exitDy=0;" edge="1" parent="1" source="JtqYQyz3M2eFER5Y3MMs-15" target="JtqYQyz3M2eFER5Y3MMs-4">
          <mxGeometry width="50" height="50" relative="1" as="geometry">
            <mxPoint x="232" y="-416" as="sourcePoint" />
            <mxPoint x="78" y="-589" as="targetPoint" />
          </mxGeometry>
        </mxCell>
        <mxCell id="JtqYQyz3M2eFER5Y3MMs-47" value="" style="endArrow=none;html=1;rounded=0;entryX=0.75;entryY=0.1;entryDx=0;entryDy=0;entryPerimeter=0;exitX=0.067;exitY=0.713;exitDx=0;exitDy=0;exitPerimeter=0;strokeColor=#000000;" edge="1" parent="1" source="JtqYQyz3M2eFER5Y3MMs-14" target="JtqYQyz3M2eFER5Y3MMs-4">
          <mxGeometry width="50" height="50" relative="1" as="geometry">
            <mxPoint x="248" y="-882" as="sourcePoint" />
            <mxPoint x="90" y="-563" as="targetPoint" />
          </mxGeometry>
        </mxCell>
      </root>
    </mxGraphModel>
  </diagram>
</mxfile>
